<svg width="30" height="31" viewBox="0 0 30 31" fill="none" xmlns="http://www.w3.org/2000/svg">
<g clip-path="url(#clip0_119_704)">
<path d="M29.9842 15.7898C29.9842 14.5198 29.8821 13.593 29.6613 12.6318H15.2988V18.3642H23.7292C23.5593 19.7888 22.6415 21.9342 20.6018 23.3758L20.5732 23.5677L25.1144 27.1201L25.429 27.1518C28.3184 24.4572 29.9842 20.4925 29.9842 15.7898Z" fill="#4285F4"/>
<path d="M15.2984 30.8937C19.4286 30.8937 22.8959 29.5206 25.4286 27.1521L20.6014 23.3762C19.3097 24.2858 17.5759 24.9208 15.2984 24.9208C11.2531 24.9208 7.81979 22.2263 6.59589 18.502L6.4165 18.5173L1.69456 22.2074L1.63281 22.3807C4.14833 27.4266 9.31542 30.8937 15.2984 30.8937Z" fill="#34A853"/>
<path d="M6.5967 18.5016C6.27377 17.5405 6.08687 16.5106 6.08687 15.4466C6.08687 14.3824 6.27377 13.3527 6.57971 12.3915L6.57116 12.1868L1.79005 8.4375L1.63362 8.51263C0.596853 10.6066 0.00195312 12.9579 0.00195312 15.4466C0.00195312 17.9352 0.596853 20.2865 1.63362 22.3804L6.5967 18.5016Z" fill="#FBBC05"/>
<path d="M15.2984 5.97271C18.1708 5.97271 20.1084 7.2256 21.2133 8.27262L25.5305 4.01616C22.8791 1.52752 19.4286 0 15.2984 0C9.31542 0 4.14833 3.46691 1.63281 8.51281L6.5789 12.3917C7.81979 8.66734 11.2531 5.97271 15.2984 5.97271Z" fill="#EB4335"/>
</g>
<defs>
<clipPath id="clip0_119_704">
<rect width="30" height="31" fill="white"/>
</clipPath>
</defs>
</svg>
