<svg width="31" height="32" viewBox="0 0 31 32" fill="none" xmlns="http://www.w3.org/2000/svg">
<path d="M14.6463 0.0201131C12.2205 0.33174 10.2346 1.46826 8.80482 3.36246C8.33433 3.9796 7.79051 5.01836 7.55832 5.72105C6.47679 8.99618 7.56443 12.699 10.2346 14.8376C10.4913 15.0454 10.7112 15.2287 10.7174 15.2532C10.7296 15.2715 10.4729 15.3815 10.143 15.4976C9.25088 15.8153 7.74774 16.5852 6.82508 17.2023C4.50926 18.7544 2.68228 20.838 1.47854 23.2943C0.916393 24.4492 0.641429 25.1885 0.348133 26.3495C0.0365066 27.5777 -0.0551482 28.3109 0.0303963 28.8181C0.232037 29.9546 1.09359 30.8834 2.21178 31.1767C2.52952 31.2561 4.08765 31.2683 15.5017 31.2683C26.7631 31.2683 28.474 31.2561 28.7795 31.1767C29.916 30.8834 30.7592 29.9729 30.9609 28.8303C31.0586 28.2865 30.9792 27.6388 30.6553 26.3495C30.362 25.1885 30.0871 24.4431 29.5249 23.2943C28.755 21.7301 27.8201 20.4225 26.5614 19.1699C25.3332 17.9356 23.9706 16.9457 22.4736 16.2064C21.7282 15.8336 20.7688 15.4304 20.4267 15.3448C20.335 15.3265 20.2678 15.2837 20.28 15.2593C20.2922 15.2348 20.5122 15.0454 20.7688 14.8376C22.8219 13.194 24.0073 10.5177 23.8484 7.89632C23.6162 4.10181 20.9094 0.942772 17.2248 0.166761C16.6444 0.0445545 15.1351 -0.0409901 14.6463 0.0201131ZM17.0293 2.36037C18.8135 2.82475 20.2922 4.05904 21.0927 5.73938C21.4471 6.49095 21.6121 7.1753 21.6548 8.0613C21.7404 9.79052 21.1782 11.3181 19.9928 12.5646C19.0152 13.5973 17.9092 14.1961 16.5466 14.4344C13.1615 15.0271 9.94134 12.699 9.39141 9.25281C9.28754 8.61123 9.34253 7.48693 9.50751 6.82702C9.69693 6.09989 10.2163 5.06724 10.7051 4.46232C11.5911 3.36246 12.9598 2.54368 14.3713 2.26871C15.019 2.14651 16.3755 2.18928 17.0293 2.36037ZM17.0599 16.8174C22.6508 17.4712 27.3069 21.6323 28.6084 27.1377C28.8284 28.0726 28.8589 28.4515 28.7367 28.6898C28.5228 29.0991 29.5921 29.0686 15.5017 29.0686C1.41133 29.0686 2.48064 29.0991 2.26677 28.6898C2.13846 28.4453 2.17512 28.0604 2.41953 27.04C3.25054 23.5571 5.49914 20.5203 8.65206 18.6199C11.1206 17.129 14.1514 16.4813 17.0599 16.8174Z" fill="#1A2D50"/>
</svg>
