<svg width="28" height="28" viewBox="0 0 28 28" fill="none" xmlns="http://www.w3.org/2000/svg">
<path d="M13.2289 0.0181122C11.0379 0.297165 9.24419 1.31489 7.95274 3.01109C7.52778 3.56373 7.03659 4.4939 6.82687 5.12314C5.85 8.05593 6.83238 11.3717 9.24419 13.2868C9.47599 13.4728 9.67467 13.637 9.68019 13.6589C9.69123 13.6753 9.45943 13.7738 9.1614 13.8777C8.35563 14.1623 6.99795 14.8517 6.16459 15.4043C4.07288 16.7941 2.4227 18.6599 1.33546 20.8595C0.82771 21.8937 0.579355 22.5557 0.314443 23.5953C0.0329737 24.6951 -0.0498113 25.3517 0.0274548 25.8059C0.209582 26.8236 0.987761 27.6553 1.99774 27.9179C2.28473 27.9891 3.69207 28 14.0016 28C24.1731 28 25.7184 27.9891 25.9944 27.9179C27.0209 27.6553 27.7825 26.84 27.9646 25.8168C28.0529 25.3298 27.9812 24.7499 27.6887 23.5953C27.4238 22.5557 27.1754 21.8882 26.6677 20.8595C25.9723 19.4588 25.1279 18.2879 23.991 17.1662C22.8816 16.0609 21.6509 15.1745 20.2987 14.5124C19.6254 14.1787 18.7589 13.8175 18.4499 13.7409C18.3671 13.7245 18.3064 13.6862 18.3174 13.6643C18.3285 13.6425 18.5271 13.4728 18.7589 13.2868C20.6133 11.8149 21.684 9.41837 21.5405 7.07104C21.3308 3.67316 18.8859 0.844328 15.5579 0.149431C15.0336 0.039999 13.6704 -0.0366039 13.2289 0.0181122ZM15.3813 2.11375C16.9929 2.52959 18.3285 3.63486 19.0515 5.13955C19.3716 5.81256 19.5206 6.42538 19.5592 7.21877C19.6365 8.76724 19.1287 10.1351 18.058 11.2514C17.175 12.1761 16.1761 12.7123 14.9453 12.9257C11.8878 13.4564 8.97928 11.3717 8.48257 8.28574C8.38874 7.71122 8.43841 6.70444 8.58743 6.1135C8.75852 5.46238 9.22763 4.53767 9.66915 3.99598C10.4694 3.01109 11.7057 2.27789 12.9806 2.03167C13.5656 1.92224 14.7908 1.96054 15.3813 2.11375ZM15.4089 15.0596C20.4588 15.6451 24.6643 19.3712 25.8398 24.3012C26.0385 25.1383 26.0661 25.4776 25.9557 25.691C25.7626 26.0576 26.7284 26.0302 14.0016 26.0302C1.27475 26.0302 2.24057 26.0576 2.04741 25.691C1.93151 25.4721 1.96462 25.1274 2.18538 24.2136C2.93597 21.0948 4.96696 18.3754 7.81477 16.6737C10.0444 15.3387 12.7819 14.7587 15.4089 15.0596Z" fill="#333333"/>
</svg>
