<svg width="21" height="19" viewBox="0 0 21 19" fill="none" xmlns="http://www.w3.org/2000/svg">
<path d="M0 7.19226C0 6.5338 2.44472e-09 5.87534 0.0157377 5.19231C0.0482267 5.13924 0.0737637 5.11271 0.080379 5.08193C0.151245 4.75214 0.195965 4.41442 0.292261 4.0928C0.555606 3.21324 0.981528 2.42369 1.60405 1.75211C1.97037 1.35692 2.37542 1.01467 2.83723 0.737769C3.52867 0.323184 4.27512 0.086318 5.06658 0.022881C5.46963 -0.00942468 5.87963 0.0344412 6.28563 0.0588319C6.77352 0.0881425 7.2301 0.24996 7.6691 0.457104C8.34664 0.776808 8.94687 1.21337 9.42815 1.79918C9.73551 2.1733 10.0089 2.57669 10.2958 2.96835C10.3649 3.06273 10.4268 3.16263 10.5075 3.28304C10.5409 3.23507 10.559 3.21377 10.5721 3.18958C11.0024 2.39181 11.5611 1.70424 12.2566 1.13438C13.0296 0.501022 13.9097 0.107477 14.8935 0.0244076C15.6233 -0.0372169 16.3547 0.0114391 17.0673 0.244201C18.3036 0.648032 19.2603 1.4159 19.9784 2.51115C20.4291 3.19858 20.7166 3.95401 20.8766 4.76255C20.9204 4.98426 20.959 5.20707 21 5.42937C21 5.93393 21 6.43849 20.9839 6.96882C20.9508 7.1443 20.9439 7.29607 20.9152 7.44341C20.7305 8.39273 20.3789 9.27798 19.8668 10.0874C19.1828 11.1687 18.3598 12.1336 17.4327 13.0059C16.9584 13.452 16.4959 13.9111 16.0243 14.3602C15.7577 14.614 15.4873 14.864 15.2117 15.1075C14.765 15.502 14.3109 15.8879 13.8631 16.2811C13.5314 16.5725 13.2071 16.8727 12.8752 17.1639C12.3303 17.6419 11.7828 18.1167 11.2348 18.5909C10.9972 18.7966 10.787 19.0297 10.4165 18.9969C10.1466 18.973 9.99755 18.7906 9.82613 18.6445C9.12953 18.051 8.44824 17.4388 7.76053 16.8344C7.19028 16.3332 6.61572 15.837 6.04898 15.3317C5.44991 14.7976 4.84818 14.266 4.2658 13.7131C3.8191 13.2891 3.38431 12.8492 2.97381 12.3887C2.47201 11.8257 1.97499 11.2544 1.52293 10.6499C0.83067 9.7242 0.326304 8.69834 0.119671 7.53668C0.0986257 7.41836 0.0407727 7.3069 0 7.19226Z" fill="#1A2D50"/>
</svg>
