<svg width="30" height="30" viewBox="0 0 30 30" fill="none" xmlns="http://www.w3.org/2000/svg">
<path d="M5.37303 0.123085C5.03308 0.29892 4.91586 0.586113 4.91586 1.22498V1.74662L3.73191 1.77006C2.70035 1.79351 2.49521 1.81695 2.19629 1.92245C1.2292 2.27998 0.549313 2.94815 0.174201 3.91524L0.0218114 4.30793L0.00422798 13.5099C-0.00749428 20.1564 0.00422798 22.8057 0.051117 23.0577C0.250396 24.0834 1.06509 24.9157 2.09079 25.1384C2.31351 25.1853 4.32974 25.2029 9.09484 25.2029H15.7883L16.0461 25.7597C16.5502 26.8557 17.3473 27.8404 18.3027 28.5496C18.8654 28.9716 20.0083 29.546 20.6237 29.7159C22.3938 30.2024 24.1755 30.0618 25.758 29.3115C26.5962 28.913 27.194 28.491 27.8387 27.8462C30.3473 25.3377 30.7048 21.5162 28.7121 18.5446C28.3194 17.9644 27.3523 16.9973 26.7955 16.628L26.3735 16.3467L26.3559 10.3273L26.3383 4.30793L26.1859 3.91524C25.8108 2.94815 25.1309 2.27998 24.1638 1.92245C23.8649 1.81695 23.6598 1.79351 22.6341 1.77006L21.4443 1.74662V1.22498C21.4443 0.814697 21.4208 0.650587 21.327 0.468891C21.1922 0.205141 20.8581 0 20.5651 0C20.272 0 19.9379 0.205141 19.8031 0.468891C19.7094 0.650587 19.6859 0.814699 19.6859 1.23084V1.75834H18.1034H16.5209V1.23084C16.5209 0.574392 16.4037 0.29892 16.052 0.117224C15.759 -0.0293045 15.5245 -0.0293045 15.2315 0.117224C14.8798 0.29892 14.7626 0.574392 14.7626 1.23084V1.75834H13.1801H11.5975V1.23084C11.5975 0.814699 11.5741 0.650587 11.4803 0.468891C11.3455 0.205141 11.0114 0 10.7184 0C10.4253 0 10.0912 0.205141 9.95643 0.468891C9.86265 0.650587 9.83921 0.814699 9.83921 1.23084V1.75834H8.2567H6.6742V1.23084C6.6742 0.574392 6.55697 0.29892 6.20531 0.117224C5.91811 -0.0293045 5.65436 -0.0293045 5.37303 0.123085ZM4.91586 4.04418C4.91586 4.46032 4.9393 4.62443 5.03308 4.80613C5.16789 5.06988 5.50197 5.27502 5.79503 5.27502C6.08808 5.27502 6.42217 5.06988 6.55697 4.80613C6.65075 4.62443 6.6742 4.46032 6.6742 4.04418V3.51668H8.2567H9.83921V4.04418C9.83921 4.46032 9.86265 4.62443 9.95643 4.80613C10.0912 5.06988 10.4253 5.27502 10.7184 5.27502C11.0114 5.27502 11.3455 5.06988 11.4803 4.80613C11.5741 4.62443 11.5975 4.46032 11.5975 4.04418V3.51668H13.1801H14.7626V4.04418C14.7626 4.70063 14.8798 4.9761 15.2315 5.1578C15.5245 5.30433 15.759 5.30433 16.052 5.1578C16.4037 4.9761 16.5209 4.70063 16.5209 4.04418V3.51668H18.1034H19.6859V4.04418C19.6859 4.70063 19.8031 4.9761 20.1548 5.1578C20.4479 5.30433 20.6823 5.30433 20.9754 5.1578C21.327 4.9761 21.4443 4.70063 21.4443 4.04418V3.51668H22.3996C23.5367 3.51668 23.8004 3.58115 24.1697 3.95627C24.5741 4.35482 24.6093 4.54824 24.6093 6.19522V7.61947H13.1801H1.75085V6.19522C1.75085 4.54238 1.78601 4.35482 2.19043 3.95627C2.55968 3.58115 2.78827 3.5284 3.93705 3.52254L4.91586 3.51668V4.04418ZM24.6093 12.4901V15.6023L24.451 15.5672C24.3572 15.5496 24.0349 15.491 23.7301 15.4441C21.9659 15.1628 20.1079 15.5965 18.5371 16.6456C17.9452 17.0442 17.0367 17.9527 16.6381 18.5446C15.7648 19.8517 15.3018 21.4283 15.3545 22.9112L15.378 23.4445H8.91315C2.54796 23.4445 2.44832 23.4445 2.21974 23.3273C2.06735 23.2511 1.94426 23.128 1.86807 22.9756C1.75085 22.7471 1.75085 22.6474 1.75085 16.0595V9.37781H13.1801H24.6093V12.4901ZM24.0407 17.2845C26.0101 17.8003 27.534 19.33 28.0791 21.3345C28.2725 22.0496 28.2725 23.3156 28.0791 24.0306C27.534 26.0352 26.0335 27.5415 24.0407 28.0866C23.355 28.2741 22.0186 28.2741 21.327 28.0866C19.3225 27.5415 17.8162 26.0469 17.2711 24.0482C17.0894 23.3918 17.0894 21.9734 17.2711 21.3169C17.8572 19.1835 19.5394 17.6186 21.708 17.1966C22.2824 17.0852 23.4488 17.1262 24.0407 17.2845Z" fill="#1A2D50"/>
<path d="M9.3649 11.7399C8.81382 12.1092 8.84899 12.8713 9.43525 13.2172C9.61113 13.3227 9.7401 13.3345 10.5726 13.3345C11.4051 13.3345 11.534 13.3227 11.7099 13.2172C12.2962 12.8713 12.3313 12.1092 11.7803 11.7399C11.5927 11.6109 11.5223 11.605 10.5726 11.605C9.62285 11.605 9.5525 11.6109 9.3649 11.7399Z" fill="#1A2D50"/>
<path d="M14.5817 11.7399C14.0306 12.1092 14.0658 12.8713 14.652 13.2172C14.8279 13.3227 14.9569 13.3345 15.7894 13.3345C16.6219 13.3345 16.7508 13.3227 16.9267 13.2172C17.513 12.8713 17.5481 12.1092 16.9971 11.7399C16.8095 11.6109 16.7391 11.605 15.7894 11.605C14.8396 11.605 14.7693 11.6109 14.5817 11.7399Z" fill="#1A2D50"/>
<path d="M19.7975 11.7399C19.2464 12.1092 19.2816 12.8713 19.8679 13.2172C20.0437 13.3227 20.1727 13.3345 21.0052 13.3345C21.8377 13.3345 21.9667 13.3227 22.1425 13.2172C22.7288 12.8713 22.764 12.1092 22.2129 11.7399C22.0253 11.6109 21.9549 11.605 21.0052 11.605C20.0555 11.605 19.9851 11.6109 19.7975 11.7399Z" fill="#1A2D50"/>
<path d="M4.20044 15.6554C3.94835 15.7843 3.74316 16.1302 3.74316 16.4116C3.74316 16.7048 3.94835 17.0389 4.21217 17.1738C4.41149 17.2734 4.55806 17.291 5.35536 17.291C6.42821 17.291 6.64512 17.2207 6.85031 16.822C6.99688 16.5289 6.99688 16.2944 6.85031 16.0013C6.64512 15.5967 6.42821 15.5323 5.34364 15.5323C4.54047 15.5381 4.38804 15.5498 4.20044 15.6554Z" fill="#1A2D50"/>
<path d="M9.41724 15.6554C9.16515 15.7843 8.95996 16.1302 8.95996 16.4116C8.95996 16.7048 9.16515 17.0389 9.42896 17.1738C9.62829 17.2734 9.77485 17.291 10.5722 17.291C11.3695 17.291 11.516 17.2734 11.7154 17.1738C11.9792 17.0389 12.1844 16.7048 12.1844 16.4116C12.1844 16.1185 11.9792 15.7843 11.7154 15.6495C11.516 15.544 11.3753 15.5323 10.5604 15.5323C9.75727 15.5381 9.60484 15.5498 9.41724 15.6554Z" fill="#1A2D50"/>
<path d="M14.6331 15.6554C14.381 15.7843 14.1758 16.1302 14.1758 16.4116C14.1758 16.7048 14.381 17.0389 14.6448 17.1738C14.8441 17.2734 14.9907 17.291 15.788 17.291C16.5853 17.291 16.7319 17.2734 16.9312 17.1738C17.195 17.0389 17.4002 16.7048 17.4002 16.4116C17.4002 16.1185 17.195 15.7843 16.9312 15.6495C16.7319 15.544 16.5912 15.5323 15.7763 15.5323C14.9731 15.5381 14.8207 15.5498 14.6331 15.6554Z" fill="#1A2D50"/>
<path d="M4.1481 19.6525C3.59702 20.0218 3.6322 20.7839 4.21845 21.1298C4.39433 21.2353 4.5233 21.2471 5.35579 21.2471C6.18827 21.2471 6.31724 21.2353 6.49312 21.1298C7.07938 20.7839 7.11455 20.0218 6.56347 19.6525C6.37587 19.5235 6.30552 19.5176 5.35579 19.5176C4.40605 19.5176 4.3357 19.5235 4.1481 19.6525Z" fill="#1A2D50"/>
<path d="M9.3649 19.6525C8.81382 20.0218 8.84899 20.7839 9.43525 21.1298C9.61113 21.2353 9.7401 21.2471 10.5726 21.2471C11.4051 21.2471 11.534 21.2353 11.7099 21.1298C12.2962 20.7839 12.3313 20.0218 11.7803 19.6525C11.5927 19.5235 11.5223 19.5176 10.5726 19.5176C9.62285 19.5176 9.5525 19.5235 9.3649 19.6525Z" fill="#1A2D50"/>
<path d="M22.2531 18.9957C22.1183 19.066 21.9835 19.2008 21.9131 19.3415C21.8018 19.5584 21.7959 19.6815 21.7959 21.2171C21.7959 22.7527 21.8018 22.8758 21.9131 23.0926C21.9893 23.245 22.1124 23.3681 22.2648 23.4443C22.4817 23.5557 22.6047 23.5615 24.1404 23.5615C25.676 23.5615 25.7991 23.5557 26.0159 23.4443C26.2797 23.3095 26.4848 22.9754 26.4848 22.6824C26.4848 22.3893 26.2797 22.0552 26.0159 21.9204C25.8108 21.8149 25.6701 21.8032 24.6679 21.8032H23.5542V20.6896C23.5542 19.6873 23.5425 19.5466 23.437 19.3415C23.2202 18.9136 22.6927 18.7613 22.2531 18.9957Z" fill="#1A2D50"/>
</svg>
