<svg width="34" height="28" viewBox="0 0 34 28" fill="none" xmlns="http://www.w3.org/2000/svg">
<path d="M7.89494 0.103016C4.02147 0.701462 1.00293 3.55559 0.154583 7.41591C-0.0558604 8.34975 -0.049284 10.1319 0.161159 11.1118C0.371602 12.0983 0.575468 12.6704 1.05554 13.6437C1.75921 15.0642 2.62729 16.1033 4.9027 18.2406C7.22415 20.4239 9.76262 22.6401 13.6821 25.8954C14.9119 26.9213 16.0036 27.8091 16.1088 27.8618C16.3784 27.9999 16.9966 28.0459 17.2991 27.9473C17.5622 27.8618 17.8384 27.6447 20.1598 25.7179C25.1118 21.5945 29.222 17.9052 30.7411 16.2216C31.6487 15.2089 32.1288 14.5315 32.5957 13.5779C33.0297 12.6901 33.2533 12.0457 33.4572 11.0855C33.6479 10.1911 33.6676 8.39578 33.4901 7.56059C32.8785 4.64069 31.0765 2.26663 28.4986 0.990822C25.9667 -0.258684 23.0797 -0.331024 20.5018 0.800108C19.3707 1.29333 18.5749 1.8589 17.4504 2.95057L16.8059 3.56875L16.1022 2.88481C15.0237 1.83917 14.1688 1.2473 13.0113 0.754072C11.4725 0.0898628 9.5456 -0.153461 7.89494 0.103016ZM10.3676 3.06237C11.3409 3.23335 12.1564 3.55559 12.9587 4.09485C13.1757 4.24611 13.9452 4.9432 14.6686 5.65345C15.6616 6.63332 16.0496 6.96872 16.2469 7.04106C16.6152 7.15943 17.1873 7.14628 17.4635 7.0016C17.5885 6.94241 18.2593 6.33081 18.9432 5.66002C19.6337 4.98266 20.39 4.28557 20.6333 4.12116C21.212 3.70685 21.942 3.37803 22.718 3.17417C23.2573 3.02949 23.4874 3.00318 24.3029 3.00318C25.125 3.00318 25.3485 3.02949 25.9141 3.18074C28.9458 3.98306 30.9253 6.81088 30.6096 9.88204C30.4847 11.125 29.9914 12.3876 29.2483 13.3872C28.5841 14.2816 26.6441 16.1822 24.0399 18.4773C21.5343 20.687 16.9177 24.5933 16.8059 24.5933C16.773 24.5933 15.997 23.9686 15.0829 23.1991C9.33516 18.3918 5.40908 14.8011 4.38317 13.4201C3.21258 11.8418 2.73908 9.91492 3.0679 8.08669C3.67293 4.75906 6.98083 2.48365 10.3676 3.06237Z" fill="#1A2D50"/>
</svg>
